<svg width="33" height="33" viewBox="0 0 33 33" fill="none" xmlns="http://www.w3.org/2000/svg">
<g filter="url(#filter0_i_1_18693)">
<rect x="0.599976" y="0.550049" width="32" height="32" rx="16" fill="white" fill-opacity="0.01"/>
<path d="M12.6 14.55V12.55H10.6V17.05C10.6 17.3261 10.3761 17.55 10.1 17.55C9.82384 17.55 9.59998 17.3261 9.59998 17.05V11.55H12.6C12.6 9.14633 14.5522 7.55005 16.6 7.55005C18.6575 7.55005 20.6 9.25561 20.6 11.55H23.6V24.05C23.6 24.8784 22.9284 25.55 22.1 25.55H17.1C16.8239 25.55 16.6 25.3261 16.6 25.05C16.6 24.7739 16.8239 24.55 17.1 24.55H22.1C22.3761 24.55 22.6 24.3261 22.6 24.05V12.55H20.6V14.55H19.6V12.55H13.6V14.55H12.6ZM16.6 8.55005C15.0477 8.55005 13.6 9.75377 13.6 11.55H19.6C19.6 9.84449 18.1425 8.55005 16.6 8.55005Z" fill="#1F2026"/>
<path d="M12.1 18.55C12.3761 18.55 12.6 18.7739 12.6 19.05V21.55H15.1C15.3761 21.55 15.6 21.7739 15.6 22.05C15.6 22.3261 15.3761 22.55 15.1 22.55H12.6V25.05C12.6 25.3261 12.3761 25.55 12.1 25.55C11.8238 25.55 11.6 25.3261 11.6 25.05V22.55H9.09998C8.82384 22.55 8.59998 22.3261 8.59998 22.05C8.59998 21.7739 8.82384 21.55 9.09998 21.55H11.6V19.05C11.6 18.7739 11.8238 18.55 12.1 18.55Z" fill="#1F2026"/>
</g>
<defs>
<filter id="filter0_i_1_18693" x="0.599976" y="0.550049" width="32" height="32" filterUnits="userSpaceOnUse" color-interpolation-filters="sRGB">
<feFlood flood-opacity="0" result="BackgroundImageFix"/>
<feBlend mode="normal" in="SourceGraphic" in2="BackgroundImageFix" result="shape"/>
<feColorMatrix in="SourceAlpha" type="matrix" values="0 0 0 0 0 0 0 0 0 0 0 0 0 0 0 0 0 0 127 0" result="hardAlpha"/>
<feMorphology radius="1" operator="erode" in="SourceAlpha" result="effect1_innerShadow_1_18693"/>
<feOffset/>
<feComposite in2="hardAlpha" operator="arithmetic" k2="-1" k3="1"/>
<feColorMatrix type="matrix" values="0 0 0 0 0.211765 0 0 0 0 0.211765 0 0 0 0 0.25098 0 0 0 0.2 0"/>
<feBlend mode="normal" in2="shape" result="effect1_innerShadow_1_18693"/>
</filter>
</defs>
</svg>
