<svg width="17" height="16" viewBox="0 0 17 16" fill="none" xmlns="http://www.w3.org/2000/svg">
<path fill-rule="evenodd" clip-rule="evenodd" d="M12.0551 6.5C12.0551 9.2614 9.81645 11.5 7.05505 11.5C4.29363 11.5 2.05505 9.2614 2.05505 6.5C2.05505 3.73858 4.29363 1.5 7.05505 1.5C9.81645 1.5 12.0551 3.73858 12.0551 6.5ZM10.8949 11.7451C9.81905 12.5341 8.49145 13 7.05505 13C3.4652 13 0.555054 10.0899 0.555054 6.5C0.555054 2.91015 3.4652 0 7.05505 0C10.645 0 13.5551 2.91015 13.5551 6.5C13.5551 7.9364 13.0892 9.264 12.3002 10.3398L16.2641 14.3036C16.6521 14.6917 16.6521 15.3209 16.2641 15.709C15.876 16.097 15.2468 16.097 14.8587 15.709L10.8949 11.7451Z" fill="#595B66"/>
</svg>
