<svg width="17" height="18" viewBox="0 0 17 18" fill="none" xmlns="http://www.w3.org/2000/svg">
<path fill-rule="evenodd" clip-rule="evenodd" d="M8.54785 0C6.33871 0 4.54785 1.79086 4.54785 4V5C4.54785 7.2091 6.33871 9 8.54785 9C10.7569 9 12.5478 7.2091 12.5478 5V4C12.5478 1.79086 10.7569 0 8.54785 0ZM6.04785 4C6.04785 2.61929 7.16715 1.5 8.54785 1.5C9.92855 1.5 11.0478 2.61929 11.0478 4V5C11.0478 6.38071 9.92855 7.5 8.54785 7.5C7.16715 7.5 6.04785 6.38071 6.04785 5V4ZM2.05017 16.3686C2.52106 13.2577 5.56588 11.5 8.55005 11.5C11.5336 11.5 14.5788 13.2577 15.0497 16.3686C15.0524 16.3866 15.0503 16.3972 15.0478 16.4048C15.0448 16.4137 15.0381 16.4269 15.0237 16.442C14.9931 16.4741 14.9372 16.5039 14.8649 16.5039H2.23503C2.16272 16.5039 2.10683 16.4741 2.07623 16.442C2.06179 16.4269 2.05511 16.4137 2.05212 16.4048C2.04959 16.3972 2.04746 16.3865 2.05017 16.3686ZM8.55005 10C5.12106 10 1.18822 12.0404 0.567068 16.1441C0.404088 17.2208 1.30512 18.0039 2.23503 18.0039H14.8649C15.7948 18.0039 16.6958 17.2208 16.5328 16.1441C15.9116 12.0404 11.9784 10 8.55005 10Z" fill="#1F2026"/>
</svg>
