<svg width="19" height="16" viewBox="0 0 19 16" fill="none" xmlns="http://www.w3.org/2000/svg">
<path d="M0.599976 4.89489C0.599976 2.233 2.75015 0.0300293 5.46484 0.0300293C7.58683 0.0300293 8.95919 1.38879 9.59998 2.21676C10.2408 1.38879 11.6132 0.0300293 13.7351 0.0300293C16.4506 0.0300293 18.6 2.23305 18.6 4.89489C18.6 6.0599 18.1328 7.21625 17.4534 8.29503C16.7716 9.37763 15.852 10.4203 14.89 11.3677C13.5567 12.6808 12.0757 13.8687 11.0134 14.7207C10.5618 15.0829 10.1859 15.3844 9.92928 15.609C9.74068 15.7739 9.45924 15.7739 9.27073 15.609C9.01403 15.3844 8.63813 15.0829 8.18657 14.7207C7.12429 13.8687 5.64324 12.6808 4.30995 11.3677C3.348 10.4203 2.42834 9.37763 1.74657 8.29503C1.06722 7.21625 0.599976 6.0599 0.599976 4.89489ZM5.46484 1.03003C3.30927 1.03003 1.59998 2.77841 1.59998 4.89489C1.59998 5.79746 1.96551 6.7661 2.59275 7.76211C3.21757 8.75423 4.07831 9.73603 5.01163 10.6552C6.31031 11.9342 7.68421 13.035 8.73394 13.8761C9.05726 14.1352 9.34983 14.3696 9.59998 14.577C9.85008 14.3696 10.1427 14.1352 10.466 13.8761C11.5158 13.035 12.8897 11.9342 14.1883 10.6552C15.1217 9.73603 15.9824 8.75423 16.6072 7.76211C17.2345 6.7661 17.6 5.79746 17.6 4.89489C17.6 2.77836 15.8914 1.03003 13.7351 1.03003C11.6406 1.03003 10.4181 2.73214 10.1033 3.24031C9.87267 3.61253 9.32725 3.61252 9.09668 3.2403C8.78188 2.73213 7.55942 1.03003 5.46484 1.03003Z" fill="#1F2026"/>
</svg>
