<svg width="13" height="15" viewBox="0 0 13 15" fill="none" xmlns="http://www.w3.org/2000/svg">
<path fill-rule="evenodd" clip-rule="evenodd" d="M1.59998 6C1.59998 3.23858 3.83856 1 6.59998 1C9.36138 1 11.6 3.23858 11.6 6C11.6 8.2317 10.4079 10.2429 9.11528 11.7262C8.47378 12.4623 7.82118 13.0525 7.30968 13.4561C7.05358 13.6582 6.83748 13.8098 6.68018 13.9082C6.65038 13.9268 6.62368 13.9429 6.59998 13.9567C6.57628 13.9429 6.54958 13.9268 6.51978 13.9082C6.36248 13.8098 6.14638 13.6582 5.89028 13.4561C5.37878 13.0525 4.72618 12.4623 4.08469 11.7262C2.79206 10.2429 1.59998 8.2317 1.59998 6ZM6.59998 0C3.28627 0 0.599976 2.68629 0.599976 6C0.599976 8.5808 1.96825 10.8196 3.33079 12.3832C4.01689 13.1705 4.71558 13.803 5.27088 14.2411C5.54818 14.46 5.79438 14.634 5.98968 14.7561C6.08658 14.8167 6.17778 14.8688 6.25818 14.9076C6.29818 14.9269 6.34278 14.9465 6.38888 14.9623C6.42508 14.9747 6.50438 15 6.59998 15C6.69558 15 6.77488 14.9747 6.81108 14.9623C6.85718 14.9465 6.90178 14.9269 6.94178 14.9076C7.02218 14.8688 7.11338 14.8167 7.21028 14.7561C7.40558 14.634 7.65178 14.46 7.92908 14.2411C8.48438 13.803 9.18308 13.1705 9.86918 12.3832C11.2317 10.8196 12.6 8.5808 12.6 6C12.6 2.68629 9.91368 0 6.59998 0ZM5.59998 6C5.59998 5.4477 6.04768 5 6.59998 5C7.15228 5 7.59998 5.4477 7.59998 6C7.59998 6.5523 7.15228 7 6.59998 7C6.04768 7 5.59998 6.5523 5.59998 6ZM6.59998 4C5.49538 4 4.59998 4.89543 4.59998 6C4.59998 7.1046 5.49538 8 6.59998 8C7.70458 8 8.59998 7.1046 8.59998 6C8.59998 4.89543 7.70458 4 6.59998 4Z" fill="#1F2026"/>
</svg>
